<?xml version="1.0" encoding="utf-8"?>
<!-- Generator: Adobe Illustrator 28.0.0, SVG Export Plug-In . SVG Version: 6.00 Build 0)  -->
<svg version="1.1" id="徐海学院_00000028317721902899226150000011432382020676374975_"
	 xmlns="http://www.w3.org/2000/svg" xmlns:xlink="http://www.w3.org/1999/xlink" x="0px" y="0px" viewBox="0 0 5579 1549"
	 style="enable-background:new 0 0 5579 1549;" xml:space="preserve">
<style type="text/css">
	.st0{fill:#323232;}
</style>
<g id="徐海学院">
	<g>
		<path class="st0" d="M2018,87.7c0.7-7.2,1-14.4,0.9-21.7C2018.2,73.3,2018,80.5,2018,87.7z M898.9,302c9.9,19.2,5.9,39,4.1,47.5
			c-5.9,27.6-9.8,36.7-27,67.5c-35,62.5-179.2,199.3-228,252c54.8-14,134-58.6,206.8-112c64.9-47.6,140.8-109,168.2-164
			c4.6-9.2,11.5-22.3,18.1-33.8c6.7-11.6,13.5-22.7,20.9-33.7h0c2.6-6.8,12.5-17.3,48-34.5c21.7-10.5,45.6-18.6,65.6-24.4
			c-23,9.4-47,23.9-55.6,45.3c-6.9,17.3-12.5,42.1-9,76.8c1.6,16.1,5.8,29.9,8.8,40.7c9.3,33.2,33.5,52.6,48.7,64.7
			c43.1,34.3,92.7,66.4,117.4,78.5c31.9,15.6,64.8,29.8,98.7,42.4l28.9-43.8c21.7-15.2,43-22,63.2-18.6c0.5,0.1,1.1,0.2,1.6,0.3
			c2.7-11.9,6.9-23.6-0.6-29.2c-11.2-8.5-20.5-10.7-23.7-11.2c-15.3-2.6-45.6-18.2-75.6-28c-53.7-17.7-98.2-38.6-128.3-60.4
			c-9.8-7.1-55.9-26.3-79-70.2c-9.5-18.1-11-31.8-9-41.9c5.6-28.7,37.9-47.8,54-55.7c3.8-0.9,5.6-1.2,4.8-1.2
			c-0.9,0.1-1.7,0.1-2.6,0.2c4.4-2.1,7.1-3.1,7.1-3.2c0,0,0,0,0,0c0,0-0.1,0-0.1,0c-0.2,0.1-6.2,1.2-15.2,3.4
			C1166.4,256,1095.9,245,1065,222c-44.8-33.3-69.3-86.9-69.9-143.4C990.5,127.3,969,173.1,933,207c-34.3,32.3-79,51.1-126,54
			C845.2,261.5,883.9,273.2,898.9,302z M995.1,78.6c0.7-7.2,1-14.4,0.9-21.6C995.3,64.2,995,71.4,995.1,78.6z M595.7,393.8
			c3.6-6.4,8.3-14.9,10.3-18.8c13.2-26.7,17.2-46.2,36-66c4.2-4.5,8.8-8.5,13.7-12.2c4.2-1.1,8.3-2.2,12.4-3.5
			c7-2.2,15.6-5.1,21.9-8.3c-2.4-8.9-8.3-8.6-27-24c-54.7-45.1-120.3-82-126-60c-29.3,114-85.3,211.6-88.3,216.8
			c-35,62.5-179.2,199.3-228,252c54.8-14,134-58.6,206.8-112C508.1,498.8,563.1,451.7,595.7,393.8z M4368.7,1017
			c15.1-18,25.7-39.4,31.1-62.4l-9-619.4c25.4-16.3,62-24.4,90.3-29.3c-36.1-3-79.2-16.4-101.1-37.3c-34.6-33.1-31.7-90.7-41.7-90.1
			c-9.8,0.6-21,57.2-50.3,90.1c-11.6,13-27.5,21.7-46.3,27.3c-12-5.3-23.5-10.4-32.6-14.7c-32.6-15.2-118.9-19.3-154.2-26.4
			l1.2,720.5c0.1,0,0.3,0,0.4-0.1l-3.3,395.6c5,0.4,10,0.4,15,0c31.9-2.4,67.2-20.7,105.1-69.2c15.3-19.7,27.4-41.9,36-66.2
			c0.4-230,5.3-381.3,6.1-394.6c0.1-1.4-0.6-2.7-1.9-3.9c-1-154.1-8.7-308.1-8.5-462.2c4.7-1.1,28.1-32.4,36-36
			c2.7-1.3,10.9-7.4,18.1-13.9c7.2,3.3,14,6.9,20.1,10.8l1.1,731.4C4312.4,1059.5,4347.4,1042.4,4368.7,1017z M960.2,999.9
			c-19.3-0.6-37.7-10.9-54.9-29l-18.6-46c-33.6,5.4-66.6,12.4-99,21c-25,6.6-76.8,27.2-123,51c-32.8,16.9-55.3,32.5-57,51
			c-2.2,24.9,28.5,55.1,84,81c68.4,32,188.6,37,189,33c0.2-2.2-47.3-9.1-90-24c-42.7-14.9-81.3-37.1-72-48c12-14,21.9-15.1,33-18
			c0.8-0.2,8.2-5.8,9-6c50.6-12.7,75-18.3,96-21c25.9-3.3,59.5-12.5,75-12c3.1,0.1,12.1-0.2,24-6c7.9-3.9,6.3-15.4,6-27
			C961.2,999.9,960.7,999.9,960.2,999.9z M1457.9,996.9c-46.2-23.8-98-44.4-123-51c-32.4-8.6-65.4-15.6-99-21l-18.6,46
			c-17.2,18.1-35.6,28.4-54.9,29c-0.5,0-1,0-1.5,0c-0.3,11.6-1.9,23.1,6,27c11.9,5.8,20.9,6.1,24,6c15.5-0.5,49.1,8.7,75,12
			c21,2.7,45.4,8.3,96,21c0.8,0.2,8.2,5.8,9,6c11.1,2.9,21,4,33,18c9.3,10.9-29.3,33.1-72,48c-42.7,14.9-90.2,21.8-90,24
			c0.4,4,120.6-1,189-33c55.5-25.9,86.2-56.1,84-81C1513.3,1029.5,1490.7,1013.8,1457.9,996.9z M5216.3,1265.7
			c-11.9-7.5-21.2-8.9-24.5-9.2c-16.4-1.4-50.6-15.1-77.5-21.7c-21.8-5.3-46.8-14.3-98.5-33.8c-0.8-0.3-11-6.9-11.7-7.2
			c-6.7-2.6-7.1-5-13.4-9.5c-6.6-4.7-36.1-26.3-38.6-29.9c-13-19.3-9.5-13-25-36.3c-0.1-0.1-0.2-0.3-0.2-0.4
			c-0.1-2.4-0.1-4.7-0.1-7.1l0-241.6c0.4-0.4,0.6-0.6,0.6-0.8c0,0,0,0,0,0c-0.1,0-0.3,0.3-0.6,0.8v-46.7c37.4,0,74.9,0,109.1,0
			c7.2,3.7,14.1,7.7,20.5,12.2c26.1,18.3,44.6,40.6,58.9,65.5c12.7-25.1,35-47.6,61.1-65.5c29.6-20.4,76.6-32.6,115.6-38.6
			c-41.2-1.8-91.4-15.8-122.2-37c-26.6-18.3-45.5-42.3-54.5-68.9c-9,28.8-30.4,54.4-61.1,72.3c-16.1,9.4-35.2,17.5-55.3,23h-553.9
			c-13.9,15-19,27.6-15,33c1.2,1.6,3.2,2.6,6,3c25,0,78.8,0,145.8,0l0,281.8c-0.1,33.9-7,66.3-21,96c-38,80.5-121.5,128-210,141
			c127.9,3.1,256.8-44,312-147c15.7-29.2,24.5-61.5,27-96l2.8-275.8c4.6,0,9.2,0,13.9,0v1c25.5,0,64.5,0,109.4,0l2.9,282.4
			c2.5,34.5,6.5,69.9,27,96c5.3,6.7,10.6,13,15.9,19c13.2,21,32,33.7,44.8,42.3c0.5,0.4,1.1,0.7,1.6,1.1c22,17,45.1,30.4,69.6,42.1
			c21.1,11.5,39.7,20.6,52,25.4c33,13,66.9,24.3,101.6,34.1l25.1-46.1c20.3-16.9,40.9-25.5,61.3-23.9c0.5,0,1.1,0.1,1.6,0.2
			C5221,1282.7,5224.2,1270.7,5216.3,1265.7z M4753.1,402.2c22.3-15.5,43.4-24.7,63.1-43.4c16.9-16,32.7-33.1,47.3-51.2
			c-18.6-19.3-37.3-38.7-55.9-58l-50.5-36.6c-24.3,17.5-46.7,29.4-67,51.2c-12.7,13.7-24.5,28.2-35.5,43.4
			c13.5,17.9,27.9,35,43.4,51.2C4715.3,377.1,4733.7,386.3,4753.1,402.2z M3795.3,317.2c-9.2,0.6-19.3,37.3-37.8,74.9
			c-27.5-25.6-51.1-56.5-59.3-84.7c-18.4-62.8,24.1-129,11.8-135c-12-5.9-63.7,53.4-120.9,72.4c-40,13.3-86.8,1.5-136-22.8
			c32.3,28.8,74.8,75.8,88.7,116.7c12.4,36.5,0.8,83.8-4.4,122c30.4-23.8,72.1-57.3,109.9-64.9c30.8-6.1,68.4,0.6,102.7,10.5
			c-6.8,12.1-14.5,23.8-23.5,33.9c-15.4,17.3-36.4,29-61.3,36.7l-681.5-2.8c-21.1-9.2-42.3-17.4-64.1-24.9
			c-36.3-12.4-65-21.7-102.7-29.2l6.7,272.2c41.9-5.4,81.3-21.8,114-48c21.7-17.4,24.3-32,38.3-56.2c-2-109.6,2.5,21.3,0.8-77.8
			l707.2,5.7c18.6,8.3,35.6,18.2,48.3,29.4c28.9,25.5,42.4,72.3,57,108c14.5-35.8,34-85.7,63-111c34-29.7,93.5-43.3,138-51
			c-49.3-4.1-108.1-22.3-138-51C3805.1,395,3809,316.4,3795.3,317.2z M1174.4,846.7c4.6,0,8.9,0,12.7,0v-0.8c82.2,0,164.4,0,246.6,0
			c2.8-0.4,4.8-1.4,6-3c4-5.4-1.1-18-15-33h-264v0.8h-5.4l2.6-156.8c44.9,0,89.8,0,134.8,0c2.8-0.4,4.8-1.4,6-3c4-5.4-1.1-18-15-33
			h-264v0.8H821.1l-9,36c46.1,0,106.1,0,165.9,0v156H698.1c-13.9,15-19,27.6-15,33c1.2,1.6,3.2,2.6,6,3c52.3,0,179.1,0,294.7,0
			l-4.4,521.9c5,0.4,10,0.4,15,0c31.9-2.4,67.2-20.7,105-69c15.3-19.6,27.4-41.8,36-66C1157.3,922.8,1120.7,860.5,1174.4,846.7z
			 M2592.2,878.2c34-29.7,93.5-43.3,138-51c-49.3-4.1-108.1-22.3-138-51c-5.9-5.6-10.9-11.8-15.3-18.2c3-58.7,6.1-117.4,9.1-176
			c11.7-1.8,22.9-5.8,33-12c7.9-4.9,15-10.9,21-18c-17-19-35-37-54-54c-27.2-24.3-56.2-46.3-87-66l-78,90l-249.4-3
			c0.6-1.3,0.8-2.3,0.4-3c-20.9-9.4-45.3-19.9-61.8-27.6c-27.8-13-81.4-17.8-118.6-23.4c0.1-0.1,0.2-0.2,0.3-0.3
			c32.7-32.8,47.4-45.2,63.6-71.6c102.7,0.1,506.4,3,595.2,3c2.8-0.4,4.8-1.4,6-3c3.9-5.4-1.1-18-15-33l-567.1-2.9
			c3.2-6.6,6.6-13.8,10.3-21.9h0c2.6-6.8,12.5-17.4,48-34.6c51.3-24.9,115-36.4,111-36.1c-41.7,2.9-122.3-8-156-33.1
			c-44.8-33.4-69.3-87.2-69.9-143.8c-4.6,48.8-26.1,94.7-62.1,128.8c-34.3,32.4-79,51.2-126,54.2c38.2,0.5,76.9,12.2,91.8,41.1
			c9.9,19.2,5.9,39.1,4.1,47.6c-5.6,26.3-10.6,31.4-27,64.7c-31.7,64.4-56.2,99.1-105,151.9c87-22.3,148.1-66.8,179.5-94.1
			l-7.8,333.4h-95.2c-13.9,15-19,27.6-15,33c1.2,1.6,3.2,2.6,6,3c19.4,0,56.4,0,103.4,0l-7.7,331.3c39.3-5.1,76.2-20.4,106.9-45
			c4.8-3.8,9.4-7.9,13.8-12.1c79.6-1.1,218.1-4.4,327.4-6.6l-2.2,256c5,0.4,10,0.4,15,0c31.9-2.3,67.2-20.7,105-69
			c15.3-19.6,27.4-41.8,36-66c1.3-18,2.3-35.1,3.2-51.5c8.7-15,18.5-28.5,29.8-38.4c34-29.7,93.5-43.3,138-51
			c-49.3-4.1-108.1-22.3-138-51c-10.7-10.3-18.8-22.3-25.1-34.7c-0.1-47.1-1-80.6,0.3-104.4C2574.7,896.9,2582.9,886.3,2592.2,878.2
			z M2108.5,1088.5c2.1-3.3,4.2-6.6,6.2-10c-0.5-26-0.2-63.6,0.4-107c31.8,9.4,62.3,23.1,86.5,45.2c21.7,19.8,38.2,43.2,51.4,69.3
			L2108.5,1088.5z M2199.4,922.6c-23.7,18-53.8,32.2-84.1,37.6c0.5-34,1.3-71.2,2-109c44.7,0,91.2,0,136.1,0
			C2242.3,879.4,2223.8,904.2,2199.4,922.6z M2118,815.2c0.9-43.1,1.8-86,2.4-124.7c32.2,9.4,63,23.1,87.5,45.5
			c24.5,22.3,42.3,49.2,56.3,79.2H2118z M2205.7,642.1c-24,18.2-54.4,32.6-85.1,37.8c0.6-43.4,0.9-81,0.4-106.9
			c3.5-0.8,9-13.2,14.8-21l0.2,0l129.5,1.3C2255.8,588.6,2234.9,619.9,2205.7,642.1z M2405.4,1083.1l-137.6,2.5
			c13.2-26.1,32.2-49.6,53.9-69c22-19.7,53.7-33.5,84.6-42.6L2405.4,1083.1z M2406.5,961.9c-33.3-7.3-67.9-22.8-91.3-43.7
			c-20.7-18.5-36.7-41.4-47.1-67c50.3,0,98.3,0,139.3,0L2406.5,961.9z M2418.3,808.3c-6.8,2.7-14,5-21.4,6.9h-127.5
			c13.1-30.3,34.2-57.3,58.7-79.2c24.3-21.8,60.5-36.4,94.3-45.3L2418.3,808.3z M2422.6,683.3c-36.2-6.2-75.4-22.6-101.1-45.6
			c-25.3-22.6-43.6-51.8-53.2-84.3L2427,555L2422.6,683.3z M550.2,729.8c16.3-24.3,35.4-47,40.3-60.1c4-10.7,20.1-48.9,35.8-74.6
			c8.2-13.6,8.2-22.1,15.6-26.3c11.7-6.7,20.7-6,33.1-12c6.4-3.1,12.4-7.1,18-12c-17.3-13-35.4-25-54.1-35.9
			c-30.3-17.6-62-32.3-95.2-43.9l-38.9,132.4c-12.7,36.4-54.4,121.8-85.7,162.7C360.7,836.3,287.7,897.9,192,911.9
			c81.3,2,166.5-25.1,237.3-69l-4.5,532c5,0.4,10,0.4,15,0c31.9-2.3,67.2-20.7,105-69c15.3-19.6,27.4-41.8,36-66
			c15.8-223.6,5.6-342.1,6.1-393.5c0.3-32.8-86.8-25.2-132.2-20.4C493.4,798.2,526.4,765.4,550.2,729.8z M1735.8,474
			c12.8-32.7,35.1-61.9,61.2-85.2c29.6-26.5,76.8-42.4,115.8-50.3c-41.3-2.3-91.5-20.5-122.4-48.1c-26.6-23.8-45.5-55-54.6-89.6
			c-9,37.4-30.5,70.7-61.2,94c-33.7,25.6-80.3,43.7-122.4,39.3c44.9,9.4,90.8,23.8,124.5,54.6C1702.9,412.6,1721.4,441.6,1735.8,474
			z M3078.3,444c12.7-32.7,35-61.8,61.1-85.2c27.1-24.3,68.9-39.6,105.7-48.1c-0.7,0.9-1.4,1.9-2.1,2.8c13.6,17.9,28.1,35,43.6,51.2
			c17.4,18.2,35.9,27.4,55.5,43.3c22.5-15.4,43.6-24.6,63.4-43.3c17-16,32.8-33.1,47.6-51.2c-18.7-19.3-37.5-38.6-56.2-58L3346,219
			c-24.4,17.5-46.9,29.3-67.4,51.2c-11.2,12-21.7,24.6-31.6,37.7c-39.6-4-85.4-21.6-114.3-47.4c-26.6-23.8-45.5-55-54.5-89.6
			c-9,37.4-30.4,70.7-61.1,93.9c-33.7,25.6-80.2,43.7-122.2,39.3c44.9,9.4,90.6,23.8,124.4,54.6C3045.4,382.6,3064,411.6,3078.3,444
			z M3851,924.9h-2.7c-14-5.4-26.9-11.8-37.4-19.1c-26.6-18.3-45.5-42.3-54.5-68.9c-9,28.8-30.4,54.4-61.1,72.3
			c-10,5.9-21.2,11.2-33,15.7h-202h-30.3c0.4-55.6,2.7-87.6,15.9-105.1c15-6.4,30-12.6,44.9-18.6c1.4-0.1,2.9-0.2,4.4-0.2
			c-1-0.2-1.8-0.4-2.3-0.6C3571,768.8,3642.8,743,3663,732c48.1-26.3,143.4-5.7,102.3-24.4c-39.9-18.1-87.2-81.7-132.3-119.6
			c-47.2-45.3-42.5-73.4-48-60c-0.7,1.7-5.6,56.8-60,93c-16.6,11-36.1,18.6-57.5,24h-444.3c-13.9,15-19,27.6-15,33
			c1.2,1.6,3.2,2.6,6,3c57.8,0,270.5,0,441.4,0c1.1,1,2.3,1.9,3.5,3c18.2,16,0.6,48.7-36.7,93.9c-1,0.8-1.7,1.6-2.3,2.1
			c-10.9,10.6-49.5,41.5-93,42c-7.6,0.1-18.3-0.8-28.3-0.6c-8,0.1-12.5,0.6-29.1,0.6l-0.9,102.9h-456.6c-13.9,15-19,27.6-15,33
			c1.2,1.6,3.2,2.6,6,3c60.5,0,291,0,465.3,0l-3.4,407.6c5,0.4,10,0.4,15,0c31.9-2.4,67.2-20.7,105-69c15.3-19.6,27.4-41.8,36-66
			c8.5-120.8,8.6-208.8,8.6-272.6c12.5,0,22.8,0,30.5,0c52.9,0,126.6,0,198.1,0c14.1,5.6,27.3,12.3,39.1,20.5
			c26.1,18.3,44.6,40.6,58.9,65.5c12.7-25.1,35-47.6,61.1-65.5c11.7-8.1,26.2-14.9,41.9-20.5c0.2,0,0.5,0,0.7,0c2.2-0.3,3.9-1,5.1-2
			c22.2-7.5,46.3-12.7,67.9-16.1c-25.7-1.1-54.9-7-80.7-16.4C3851.9,926,3851.4,925.5,3851,924.9z M1595.3,669.1
			c26.1,23.8,44.7,52.8,59,85.2c12.8-32.7,35.1-61.9,61.2-85.2c29.6-26.5,76.7-42.4,115.8-50.3c-41.3-2.3-91.5-20.5-122.4-48.1
			c-26.6-23.8-45.5-55-54.6-89.6c-9,37.4-30.5,70.7-61.2,94c-33.7,25.6-80.3,43.7-122.4,39.3
			C1515.7,623.9,1561.5,638.3,1595.3,669.1z M1830,954c-83.3-61.6-63.4-150.9-90-231c-12.3,83.3-34,175.1-87,231l-120,69
			c48.4,5.4,93.8,25.1,129.7,57.2l2.4,291.4c5,0.4,10,0.4,15,0c31.9-2.3,67.2-20.7,105-69c15.3-19.6,28.8-41.3,36-66
			c0.9-77.8,1.4-128.3,1.3-167.3c31.8-24.3,69.5-40.3,109.6-46.4C1891.4,1008.1,1798.5,930.7,1830,954z M4443.7,624.9
			c41.9-5.4,81.3-21.8,114-48c21.7-17.4,21.3-21.6,35.3-45.9c-2-112,4.4-77.2,3.7-95.1c0.7-0.2,1.4-0.4,2-0.6l316.6,4.5
			c31.2,10.4,62.7,24.9,83.2,42.9c28.9,25.5,42.4,72.3,57,108c14.5-35.8,34-85.7,63-111c34-29.7,93.5-43.3,138-51
			c-49.3-4.1-108.1-22.3-138-51c-47.2-45.3-43.3-123.9-57-123c-13.4,0.8-28.7,78.1-68.7,123c-11.7,13.1-26.5,23-43.8,30.3h-342.3
			c-22-9.7-44.2-18.3-67-26.1c-36.3-12.4-68-26.3-105.7-33.9L4443.7,624.9z M4972.7,636c2.8-0.4,4.8-1.4,6-3c3.9-5.4-1.1-18-14.9-33
			H4875v0h-325.8c-13.8,15-18.9,27.6-14.9,33c1.2,1.6,3.2,2.6,6,3c32.4,0,72.9,0,115.6,0v0C4746.6,636,4882,636,4972.7,636z"/>
	</g>
</g>
</svg>
