<?xml version="1.0" encoding="UTF-8"?>
<!DOCTYPE svg PUBLIC "-//W3C//DTD SVG 1.1//EN" "http://www.w3.org/Graphics/SVG/1.1/DTD/svg11.dtd">
<svg xmlns="http://www.w3.org/2000/svg" version="1.1" width="200px" height="200px" style="shape-rendering:geometricPrecision; text-rendering:geometricPrecision; image-rendering:optimizeQuality; fill-rule:evenodd; clip-rule:evenodd" xmlns:xlink="http://www.w3.org/1999/xlink">
<g><path style="opacity:0.929" fill="#fefffe" d="M 26.5,22.5 C 75.1678,22.3333 123.834,22.5 172.5,23C 181.667,25.5 187.5,31.3333 190,40.5C 190.667,81.5 190.667,122.5 190,163.5C 187.596,172.237 182.096,178.071 173.5,181C 124.167,181.667 74.8333,181.667 25.5,181C 16.9035,178.071 11.4035,172.237 9,163.5C 8.33333,122.5 8.33333,81.5 9,40.5C 11.6834,31.318 17.5167,25.318 26.5,22.5 Z M 30.5,37.5 C 76.5012,37.3333 122.501,37.5 168.5,38C 171.333,39.5 173.5,41.6667 175,44.5C 175.667,60.8333 175.667,77.1667 175,93.5C 143.193,79.6078 114.027,83.7745 87.5,106C 80.052,113.719 74.2187,122.552 70,132.5C 56.1951,122.339 40.6951,118.005 23.5,119.5C 23.3334,94.4978 23.5,69.4978 24,44.5C 25.6941,41.6424 27.8607,39.309 30.5,37.5 Z M 57.5,68.5 C 64.905,70.411 66.2383,74.2443 61.5,80C 57.6946,81.1734 54.8613,80.0067 53,76.5C 52.6754,72.8166 54.1754,70.15 57.5,68.5 Z M 132.5,100.5 C 146.417,99.2626 159.417,102.096 171.5,109C 172.667,110.167 173.833,111.333 175,112.5C 175.667,128.167 175.667,143.833 175,159.5C 174.214,162.583 172.381,164.749 169.5,166C 124.212,167.646 78.8792,167.979 33.5,167C 24.3213,163.817 20.9879,157.317 23.5,147.5C 23.5151,143.252 23.8485,139.085 24.5,135C 41.9981,133.418 56.6647,139.085 68.5,152C 72.7135,154.269 76.5469,153.769 80,150.5C 87.6803,123.315 105.18,106.649 132.5,100.5 Z"/></g>
<g><path style="opacity:0.91" fill="#fefffe" d="M 54.5,53.5 C 73.517,53.3499 81.6836,62.6832 79,81.5C 73.7912,93.8038 64.6245,98.3038 51.5,95C 41.9947,91.494 37.3281,84.6607 37.5,74.5C 38.4431,63.5669 44.1098,56.5669 54.5,53.5 Z M 57.5,68.5 C 54.1754,70.15 52.6754,72.8166 53,76.5C 54.8613,80.0067 57.6946,81.1734 61.5,80C 66.2383,74.2443 64.905,70.411 57.5,68.5 Z"/></g>
</svg>
