<?xml version="1.0" encoding="UTF-8"?>
<!DOCTYPE svg PUBLIC "-//W3C//DTD SVG 1.1//EN" "http://www.w3.org/Graphics/SVG/1.1/DTD/svg11.dtd">
<svg xmlns="http://www.w3.org/2000/svg" version="1.1" width="200px" height="200px" style="shape-rendering:geometricPrecision; text-rendering:geometricPrecision; image-rendering:optimizeQuality; fill-rule:evenodd; clip-rule:evenodd" xmlns:xlink="http://www.w3.org/1999/xlink">
<g><path style="opacity:0.927" fill="#fefffe" d="M 91.5,-0.5 C 96.5,-0.5 101.5,-0.5 106.5,-0.5C 126.371,0.384814 145.371,5.21815 163.5,14C 174.161,14.4998 184.828,14.6665 195.5,14.5C 194.188,43.1949 192.355,71.8616 190,100.5C 187.433,123.468 177.6,142.635 160.5,158C 140.26,171.609 120.26,185.442 100.5,199.5C 99.1667,199.5 97.8333,199.5 96.5,199.5C 76.7404,185.442 56.7404,171.609 36.5,158C 21.1278,143.76 11.6278,126.26 8,105.5C 5.37696,75.1979 3.2103,44.8646 1.5,14.5C 12.505,14.6665 23.505,14.4998 34.5,14C 52.6112,5.22264 71.6112,0.389303 91.5,-0.5 Z M 92.5,15.5 C 110.678,15.2157 128.344,18.049 145.5,24C 146.423,26.0408 146.756,28.2075 146.5,30.5C 157.167,30.5 167.833,30.5 178.5,30.5C 177.427,53.1904 175.927,75.857 174,98.5C 170.965,118.404 161.798,134.904 146.5,148C 130.635,158.697 114.635,169.197 98.5,179.5C 81.3633,168.196 64.3633,156.696 47.5,145C 34.5758,133.322 26.7424,118.822 24,101.5C 21.988,77.8437 20.1546,54.177 18.5,30.5C 29.5,30.5 40.5,30.5 51.5,30.5C 51.3379,28.4727 51.5045,26.4727 52,24.5C 58.8324,21.3321 65.9991,19.1654 73.5,18C 79.9884,17.2164 86.3217,16.383 92.5,15.5 Z M 119.5,55.5 C 113.969,60.8599 107.469,64.8599 100,67.5C 92.7528,64.4621 86.2528,60.2954 80.5,55C 93.3963,54.2556 106.396,54.4222 119.5,55.5 Z M 70.5,102.5 C 77.8333,102.5 85.1667,102.5 92.5,102.5C 92.5,105.5 92.5,108.5 92.5,111.5C 85.1667,111.5 77.8333,111.5 70.5,111.5C 70.5,108.5 70.5,105.5 70.5,102.5 Z M 105.5,102.5 C 112.833,102.5 120.167,102.5 127.5,102.5C 127.5,105.5 127.5,108.5 127.5,111.5C 120.167,111.5 112.833,111.5 105.5,111.5C 105.5,108.5 105.5,105.5 105.5,102.5 Z M 70.5,121.5 C 77.8333,121.5 85.1667,121.5 92.5,121.5C 92.5,124.5 92.5,127.5 92.5,130.5C 85.1667,130.5 77.8333,130.5 70.5,130.5C 70.5,127.5 70.5,124.5 70.5,121.5 Z M 105.5,121.5 C 112.833,121.5 120.167,121.5 127.5,121.5C 127.5,124.5 127.5,127.5 127.5,130.5C 120.167,130.5 112.833,130.5 105.5,130.5C 105.5,127.5 105.5,124.5 105.5,121.5 Z"/></g>
<g><path style="opacity:0.943" fill="#fefffe" d="M 76.5,33.5 C 81.627,33.8587 86.627,34.8587 91.5,36.5C 90.5589,38.7721 89.2255,40.7721 87.5,42.5C 105.488,43.4995 123.488,43.8329 141.5,43.5C 141.666,47.5138 141.499,51.5138 141,55.5C 133.791,62.186 125.958,68.0194 117.5,73C 129.559,76.5443 141.893,78.3777 154.5,78.5C 153.449,82.8266 152.282,87.16 151,91.5C 133.558,90.505 116.391,87.1717 99.5,81.5C 88.3114,85.1738 76.978,88.3405 65.5,91C 90.5,91.3333 115.5,91.6667 140.5,92C 140.184,109.326 140.517,126.826 141.5,144.5C 136.5,144.5 131.5,144.5 126.5,144.5C 126.5,143.167 126.5,141.833 126.5,140.5C 107.833,140.5 89.1667,140.5 70.5,140.5C 70.5,141.833 70.5,143.167 70.5,144.5C 65.8333,144.5 61.1667,144.5 56.5,144.5C 56.5,127.167 56.5,109.833 56.5,92.5C 53.2139,93.2071 49.8806,93.5405 46.5,93.5C 45.8111,89.9307 44.8111,86.4307 43.5,83C 43.8333,82.5 44.1667,82 44.5,81.5C 57.7339,79.7388 70.7339,76.9055 83.5,73C 78.3788,69.5473 73.5455,65.7139 69,61.5C 64.365,65.9806 59.365,69.9806 54,73.5C 50.7829,70.6195 47.9495,67.4529 45.5,64C 54.2343,56.9427 62.7343,49.4427 71,41.5C 73.054,38.9528 74.8874,36.2861 76.5,33.5 Z M 119.5,55.5 C 106.396,54.4222 93.3963,54.2556 80.5,55C 86.2528,60.2954 92.7528,64.4621 100,67.5C 107.469,64.8599 113.969,60.8599 119.5,55.5 Z M 70.5,102.5 C 70.5,105.5 70.5,108.5 70.5,111.5C 77.8333,111.5 85.1667,111.5 92.5,111.5C 92.5,108.5 92.5,105.5 92.5,102.5C 85.1667,102.5 77.8333,102.5 70.5,102.5 Z M 105.5,102.5 C 105.5,105.5 105.5,108.5 105.5,111.5C 112.833,111.5 120.167,111.5 127.5,111.5C 127.5,108.5 127.5,105.5 127.5,102.5C 120.167,102.5 112.833,102.5 105.5,102.5 Z M 70.5,121.5 C 70.5,124.5 70.5,127.5 70.5,130.5C 77.8333,130.5 85.1667,130.5 92.5,130.5C 92.5,127.5 92.5,124.5 92.5,121.5C 85.1667,121.5 77.8333,121.5 70.5,121.5 Z M 105.5,121.5 C 105.5,124.5 105.5,127.5 105.5,130.5C 112.833,130.5 120.167,130.5 127.5,130.5C 127.5,127.5 127.5,124.5 127.5,121.5C 120.167,121.5 112.833,121.5 105.5,121.5 Z"/></g>
</svg>
