<?xml version="1.0" encoding="UTF-8"?>
<!DOCTYPE svg PUBLIC "-//W3C//DTD SVG 1.1//EN" "http://www.w3.org/Graphics/SVG/1.1/DTD/svg11.dtd">
<svg xmlns="http://www.w3.org/2000/svg" version="1.1" width="200px" height="200px" style="shape-rendering:geometricPrecision; text-rendering:geometricPrecision; image-rendering:optimizeQuality; fill-rule:evenodd; clip-rule:evenodd" xmlns:xlink="http://www.w3.org/1999/xlink">
<g><path style="opacity:0.83" fill="#fefffe" d="M 81.5,11.5 C 96.5397,11.1238 111.54,11.6238 126.5,13C 130.881,13.8921 135.381,15.3921 140,17.5C 142.579,19.3536 145.246,21.0202 148,22.5C 148.333,22.1667 148.667,21.8333 149,21.5C 152.127,24.4003 155.46,27.067 159,29.5C 159.333,29.1667 159.667,28.8333 160,28.5C 161.961,31.4628 164.294,34.1294 167,36.5C 167.893,35.2888 168.726,35.2888 169.5,36.5C 173.425,42.0145 177.592,47.3479 182,52.5C 184.472,55.7488 185.638,59.4155 185.5,63.5C 178.137,63.8306 170.803,63.4973 163.5,62.5C 162.194,61.0878 161.36,59.4211 161,57.5C 157.272,54.8603 154.105,51.6936 151.5,48C 145.564,44.2086 139.73,40.3753 134,36.5C 133.667,36.8333 133.333,37.1667 133,37.5C 130.134,35.5402 127.134,33.8735 124,32.5C 123.667,32.8333 123.333,33.1667 123,33.5C 122.161,32.3759 120.994,31.7092 119.5,31.5C 99.2907,26.6379 80.2907,28.9712 62.5,38.5C 58.7515,40.7007 55.0849,42.8674 51.5,45C 47.3128,50.6874 42.3128,55.5207 36.5,59.5C 35.5713,60.6888 35.238,62.0222 35.5,63.5C 28.8333,63.5 22.1667,63.5 15.5,63.5C 16.9288,54.8971 21.0954,47.8971 28,42.5C 28.5216,39.504 30.0216,37.1707 32.5,35.5C 33.086,35.7093 33.586,36.0426 34,36.5C 36.706,34.1294 39.0394,31.4628 41,28.5C 41.3333,28.8333 41.6667,29.1667 42,29.5C 53.5878,19.8735 66.7545,13.8735 81.5,11.5 Z"/></g>
<g><path style="opacity:0.901" fill="#fefffe" d="M 49.5,78.5 C 53.8333,78.5 58.1667,78.5 62.5,78.5C 59.5633,92.0545 55.7299,105.388 51,118.5C 46.2633,119.469 41.43,119.803 36.5,119.5C 35.0677,112.507 33.5677,105.507 32,98.5C 30.0576,105.49 28.2243,112.49 26.5,119.5C 21.2384,119.805 16.0717,119.471 11,118.5C 7.18558,105.561 3.68558,92.561 0.5,79.5C 5.42998,79.1975 10.2633,79.5308 15,80.5C 16.6667,87.8333 18.3333,95.1667 20,102.5C 21.6807,94.7778 23.5141,87.1112 25.5,79.5C 30.43,79.1975 35.2633,79.5308 40,80.5C 41.5402,87.2019 43.2069,93.8685 45,100.5C 46.5101,93.1326 48.0101,85.7992 49.5,78.5 Z"/></g>
<g><path style="opacity:0.896" fill="#fefffe" d="M 116.5,78.5 C 121.167,78.5 125.833,78.5 130.5,78.5C 127.138,92.2809 123.304,105.948 119,119.5C 114.218,120.802 109.385,120.802 104.5,119.5C 102.569,112.872 100.736,106.205 99,99.5C 96.8278,106.017 94.6612,112.517 92.5,119C 87.798,119.828 83.1313,119.662 78.5,118.5C 74.404,105.683 71.0706,92.6832 68.5,79.5C 73.1667,79.5 77.8333,79.5 82.5,79.5C 83.4236,86.6175 84.9236,93.6175 87,100.5C 88.9938,93.5241 90.8271,86.5241 92.5,79.5C 97.43,79.1975 102.263,79.5308 107,80.5C 108.667,87.1667 110.333,93.8333 112,100.5C 114.038,93.2717 115.538,85.9383 116.5,78.5 Z"/></g>
<g><path style="opacity:0.891" fill="#fefffe" d="M 183.5,78.5 C 188.167,78.5 192.833,78.5 197.5,78.5C 194.147,92.5799 190.48,106.58 186.5,120.5C 181.456,120.827 176.456,120.494 171.5,119.5C 169.772,113.147 167.938,106.814 166,100.5C 163.817,106.717 161.817,113.051 160,119.5C 155.587,120.632 151.087,120.799 146.5,120C 141.979,106.751 138.312,93.2511 135.5,79.5C 140.099,79.2 144.599,79.5333 149,80.5C 150.824,87.4635 152.491,94.4635 154,101.5C 156.199,94.5693 158.199,87.5693 160,80.5C 164.413,79.3676 168.913,79.2009 173.5,80C 175.582,87.0693 177.416,94.236 179,101.5C 181.078,93.941 182.578,86.2743 183.5,78.5 Z"/></g>
<g><path style="opacity:0.829" fill="#fefffe" d="M 11.5,135.5 C 18.5316,135.17 25.5316,135.503 32.5,136.5C 38.8989,142.401 45.0656,148.401 51,154.5C 51.3333,154.167 51.6667,153.833 52,153.5C 53,154.833 54,156.167 55,157.5C 56.813,156.391 57.6463,157.058 57.5,159.5C 64.724,161.421 71.724,164.088 78.5,167.5C 89.3641,170.075 100.364,170.908 111.5,170C 119.885,167.542 128.219,165.042 136.5,162.5C 136.281,161.325 136.614,160.325 137.5,159.5C 138.903,159.36 140.403,159.36 142,159.5C 142.442,157.321 143.442,156.655 145,157.5C 147.491,154.168 150.658,151.668 154.5,150C 157.313,146.019 160.647,142.519 164.5,139.5C 165.429,138.311 165.762,136.978 165.5,135.5C 173.167,135.5 180.833,135.5 188.5,135.5C 188.802,141.519 186.469,146.186 181.5,149.5C 180.719,150.729 180.219,152.062 180,153.5C 174.954,157.711 170.454,162.378 166.5,167.5C 165.914,167.291 165.414,166.957 165,166.5C 161.612,170.598 157.445,173.265 152.5,174.5C 152.5,175.5 152.5,176.5 152.5,177.5C 145.318,179.879 138.318,182.712 131.5,186C 95.933,195.447 63.5996,189.447 34.5,168C 29.489,162.454 24.1557,157.287 18.5,152.5C 16.8679,148.886 14.8679,145.552 12.5,142.5C 11.5258,140.257 11.1924,137.924 11.5,135.5 Z"/></g>
</svg>
