<?xml version="1.0" encoding="UTF-8"?>
<!DOCTYPE svg PUBLIC "-//W3C//DTD SVG 1.1//EN" "http://www.w3.org/Graphics/SVG/1.1/DTD/svg11.dtd">
<svg xmlns="http://www.w3.org/2000/svg" version="1.1" width="426px" height="426px" style="shape-rendering:geometricPrecision; text-rendering:geometricPrecision; image-rendering:optimizeQuality; fill-rule:evenodd; clip-rule:evenodd" xmlns:xlink="http://www.w3.org/1999/xlink">
<g><path style="opacity:0.895" fill="#433bfe" d="M 425.5,29.5 C 425.5,33.1667 425.5,36.8333 425.5,40.5C 424.883,40.6107 424.383,40.944 424,41.5C 421.381,56.8987 417.381,71.8987 412,86.5C 408.76,94.8117 404.594,102.645 399.5,110C 408.16,110.5 416.827,110.666 425.5,110.5C 425.5,112.833 425.5,115.167 425.5,117.5C 418.375,152.668 402.042,183.001 376.5,208.5C 369.528,214.651 362.195,220.317 354.5,225.5C 350.929,278.555 329.595,323.055 290.5,359C 246.626,392.035 197.293,404.202 142.5,395.5C 131.363,392.126 120.029,388.959 108.5,386C 75.3906,372.923 47.724,350.589 25.5,319C 15.5305,302.284 8.36383,284.451 4,265.5C 2.7497,257.645 1.2497,249.978 -0.5,242.5C -0.5,224.167 -0.5,205.833 -0.5,187.5C 13.5711,116.26 54.5711,67.7602 122.5,42C 139.198,36.3887 156.198,32.3887 173.5,30C 257.499,29.5 341.499,29.3333 425.5,29.5 Z M 199.5,49.5 C 265.837,49.1667 332.17,49.5 398.5,50.5C 391.244,79.1019 379.077,105.435 362,129.5C 361.506,131.134 361.34,132.801 361.5,134.5C 373.414,134.821 385.247,134.488 397,133.5C 387.999,165.529 369.332,190.529 341,208.5C 340.667,208.167 340.333,207.833 340,207.5C 337,209.167 334,210.833 331,212.5C 332.147,262.421 314.647,304.587 278.5,339C 236.945,371.342 189.945,382.009 137.5,371C 103.782,363.093 75.9485,346.26 54,320.5C 37.1735,297.61 26.8402,271.944 23,243.5C 15.8205,192.402 28.4871,147.068 61,107.5C 84.2658,83.1842 112.099,67.0176 144.5,59C 162.857,55.0874 181.19,51.9208 199.5,49.5 Z"/></g>
<g><path style="opacity:0.86" fill="#433bfe" d="M 111.5,178.5 C 121.27,177.297 127.77,181.297 131,190.5C 131.848,197.899 131.515,205.233 130,212.5C 119.667,226.368 109.667,225.701 100,210.5C 99.1041,202.754 99.4375,195.087 101,187.5C 103.505,183.189 107.005,180.189 111.5,178.5 Z"/></g>
<g><path style="opacity:0.861" fill="#433bfe" d="M 224.5,179.5 C 233.904,178.73 240.404,182.73 244,191.5C 246.722,202.555 244.222,212.055 236.5,220C 227.93,223.979 220.763,222.146 215,214.5C 210.852,205.98 210.518,197.313 214,188.5C 216.52,184.131 220.02,181.131 224.5,179.5 Z"/></g>
<g><path style="opacity:0.872" fill="#433bfe" d="M 112.5,276.5 C 114.527,276.338 116.527,276.505 118.5,277C 153.515,302.936 188.515,302.936 223.5,277C 236.154,276.335 240.654,282.168 237,294.5C 207.317,318.944 174.151,325.111 137.5,313C 126.067,308.914 115.567,303.08 106,295.5C 102.355,286.98 104.521,280.647 112.5,276.5 Z"/></g>
</svg>
