<?xml version="1.0" encoding="UTF-8"?>
<!DOCTYPE svg PUBLIC "-//W3C//DTD SVG 1.1//EN" "http://www.w3.org/Graphics/SVG/1.1/DTD/svg11.dtd">
<svg xmlns="http://www.w3.org/2000/svg" version="1.1" width="256px" height="256px" style="shape-rendering:geometricPrecision; text-rendering:geometricPrecision; image-rendering:optimizeQuality; fill-rule:evenodd; clip-rule:evenodd" xmlns:xlink="http://www.w3.org/1999/xlink">
<g><path style="opacity:0.859" fill="#3484f1" d="M 117.5,-0.5 C 123.5,-0.5 129.5,-0.5 135.5,-0.5C 186.695,4.6949 223.362,30.0282 245.5,75.5C 245.291,76.086 244.957,76.586 244.5,77C 246.697,80.6214 248.697,84.2881 250.5,88C 250.167,88.3333 249.833,88.6667 249.5,89C 251.481,89.6054 251.815,90.6054 250.5,92C 252.677,100.39 254.344,108.557 255.5,116.5C 255.5,123.833 255.5,131.167 255.5,138.5C 254.776,140.218 254.109,142.052 253.5,144C 253.783,147.102 253.783,150.102 253.5,153C 252.441,156.772 251.108,160.772 249.5,165C 239.857,197.912 218.857,223.578 186.5,242C 179.634,244.373 172.967,247.039 166.5,250C 156.864,252.206 147.531,254.04 138.5,255.5C 130.5,255.5 122.5,255.5 114.5,255.5C 106.286,253.938 97.9523,252.271 89.5,250.5C 72.9977,245.436 57.9977,237.102 44.5,225.5C 43.5713,224.311 43.238,222.978 43.5,221.5C 39.7974,221.138 36.7974,219.471 34.5,216.5C 25.789,206.803 18.4557,196.636 12.5,186C 12.8333,185.667 13.1667,185.333 13.5,185C 9.15737,178.304 5.82404,171.47 3.5,164.5C 3.83333,163.833 4.16667,163.167 4.5,162.5C 2.17553,154.527 0.508865,146.527 -0.5,138.5C -0.5,131.167 -0.5,123.833 -0.5,116.5C 0.46433,108.291 2.131,100.124 4.5,92C 4.04265,91.586 3.70931,91.086 3.5,90.5C 7.45853,82.2961 10.9585,73.9628 14,65.5C 14.7504,64.8742 15.5838,64.3742 16.5,64C 16.1667,63.6667 15.8333,63.3333 15.5,63C 17.9664,59.1894 20.4664,55.3561 23,51.5C 27.9502,45.2329 33.1168,39.2329 38.5,33.5C 43.575,30.9257 47.9083,27.4257 51.5,23C 60.7268,16.8862 70.3935,11.5529 80.5,7C 92.7493,3.4076 105.083,0.907602 117.5,-0.5 Z M 119.5,17.5 C 128.123,17.2361 136.623,17.9027 145,19.5C 147.342,18.8218 149.676,19.1552 152,20.5C 152.333,20.1667 152.667,19.8333 153,19.5C 154.987,20.218 156.821,21.218 158.5,22.5C 156.525,23.7493 156.191,25.2493 157.5,27C 154.207,28.9609 152.873,31.6276 153.5,35C 152.167,35.6667 151.167,36.6667 150.5,38C 150.165,39.164 150.165,40.4974 150.5,42C 148.349,45.4329 146.015,48.7663 143.5,52C 143.833,52.3333 144.167,52.6667 144.5,53C 143.033,54.0975 142.199,55.5975 142,57.5C 134.932,67.2894 128.099,77.2894 121.5,87.5C 117.719,90.4032 114.386,93.7365 111.5,97.5C 92.7621,79.9296 74.4287,61.7629 56.5,43C 74.9794,27.7435 95.9794,19.2435 119.5,17.5 Z M 175.5,28.5 C 185.385,32.9436 194.052,39.1102 201.5,47C 202.5,47.3333 203.5,47.6667 204.5,48C 210.19,54.0241 215.523,60.3575 220.5,67C 220.167,67.3333 219.833,67.6667 219.5,68C 221.737,71.7444 224.07,75.411 226.5,79C 208.145,85.605 190.812,94.605 174.5,106C 170.228,107.077 166.895,109.41 164.5,113C 158.625,116.529 153.292,120.862 148.5,126C 146.336,126.914 144.336,128.081 142.5,129.5C 141.614,128.675 141.281,127.675 141.5,126.5C 140.127,126.657 138.793,126.49 137.5,126C 133.892,120.391 129.559,115.391 124.5,111C 128.442,108.392 131.275,104.892 133,100.5C 134.583,98.945 136.416,97.7783 138.5,97C 138.167,96.6667 137.833,96.3333 137.5,96C 140.832,91.3385 144.499,87.0052 148.5,83C 148.167,82.6667 147.833,82.3333 147.5,82C 153.729,73.0306 159.563,63.8639 165,54.5C 168.675,45.0804 172.175,36.4137 175.5,28.5 Z M 42.5,56.5 C 45.2759,59.4389 48.2759,62.2722 51.5,65C 52.448,65.4828 53.448,65.6495 54.5,65.5C 54.3433,66.8734 54.51,68.2068 55,69.5C 57.5056,71.8635 60.3389,73.5302 63.5,74.5C 63.238,75.9778 63.5713,77.3112 64.5,78.5C 75.3986,89.097 86.2319,99.7637 97,110.5C 97.4922,111.549 97.3256,112.549 96.5,113.5C 93.5979,114.57 91.0979,116.236 89,118.5C 88.51,119.793 88.3433,121.127 88.5,122.5C 82.4248,123.087 77.7581,125.92 74.5,131C 65.81,136.343 57.1433,141.676 48.5,147C 39.6442,149.992 30.8108,153.825 22,158.5C 19.9232,151.91 18.0898,145.41 16.5,139C 17.0628,128.821 18.0628,118.654 19.5,108.5C 19.9219,99.805 22.5886,91.305 27.5,83C 26.3659,81.984 26.6992,81.3173 28.5,81C 28.1667,80.6667 27.8333,80.3333 27.5,80C 28.9769,78.1164 30.3102,76.1164 31.5,74C 34.425,68.7082 38.0917,62.8749 42.5,56.5 Z M 231.5,96.5 C 233.178,97.7471 234.511,99.4138 235.5,101.5C 235.167,102.167 234.833,102.833 234.5,103.5C 240.411,128.663 237.745,152.163 226.5,174C 226.833,174.333 227.167,174.667 227.5,175C 222.34,182.29 217.173,190.123 212,198.5C 193.796,179.629 175.296,161.129 156.5,143C 157.988,141.283 159.821,140.116 162,139.5C 162.483,138.552 162.649,137.552 162.5,136.5C 165.5,136.833 166.833,135.5 166.5,132.5C 167.873,132.657 169.207,132.49 170.5,132C 179.522,124.318 189.355,117.818 200,112.5C 201.654,111.347 203.154,110.013 204.5,108.5C 214.043,105.218 223.043,101.218 231.5,96.5 Z M 110.5,125.5 C 112.315,126.63 114.315,127.296 116.5,127.5C 119.651,133.332 123.984,138.332 129.5,142.5C 122.023,152.381 114.357,162.048 106.5,171.5C 106.709,172.086 107.043,172.586 107.5,173C 102.653,179.236 97.9862,185.569 93.5,192C 93.8333,192.333 94.1667,192.667 94.5,193C 92.1817,199.153 88.8483,204.986 84.5,210.5C 84.7093,211.086 85.0426,211.586 85.5,212C 83.4563,216.831 81.2897,221.664 79,226.5C 77.6439,225.62 76.1439,225.286 74.5,225.5C 74.5,224.5 74.5,223.5 74.5,222.5C 66.4968,220.834 60.1634,216.668 55.5,210C 54.5,209.667 53.5,209.333 52.5,209C 43.1549,199.136 35.1549,188.302 28.5,176.5C 37.1241,171.859 46.1241,167.693 55.5,164C 65.1162,159.191 74.4496,153.858 83.5,148C 92.8236,140.805 101.824,133.305 110.5,125.5 Z M 142.5,157.5 C 143.552,157.351 144.552,157.517 145.5,158C 145.167,158.333 144.833,158.667 144.5,159C 147.578,161.752 150.911,164.086 154.5,166C 154.167,166.333 153.833,166.667 153.5,167C 156.194,170.551 159.528,173.051 163.5,174.5C 163.351,175.552 163.517,176.552 164,177.5C 175.527,189.027 187.027,200.527 198.5,212C 191.699,216.905 184.699,221.572 177.5,226C 169.015,228.498 160.849,231.665 153,235.5C 152.667,235.167 152.333,234.833 152,234.5C 144.037,236.766 135.87,237.766 127.5,237.5C 120.14,237.388 112.806,236.888 105.5,236C 104.234,235.691 103.067,235.191 102,234.5C 101.667,234.833 101.333,235.167 101,235.5C 99.1667,234.333 97.6667,232.833 96.5,231C 98.4812,230.395 98.8146,229.395 97.5,228C 100.627,222.728 103.294,217.728 105.5,213C 105.167,212.667 104.833,212.333 104.5,212C 107.746,206.082 111.412,200.416 115.5,195C 115.167,194.667 114.833,194.333 114.5,194C 120.491,186.17 126.491,178.17 132.5,170C 132.167,169.667 131.833,169.333 131.5,169C 136.392,165.628 140.058,161.795 142.5,157.5 Z"/></g>
</svg>
