<?xml version="1.0" encoding="UTF-8"?>
<!DOCTYPE svg PUBLIC "-//W3C//DTD SVG 1.1//EN" "http://www.w3.org/Graphics/SVG/1.1/DTD/svg11.dtd">
<svg xmlns="http://www.w3.org/2000/svg" version="1.1" width="512px" height="512px" style="shape-rendering:geometricPrecision; text-rendering:geometricPrecision; image-rendering:optimizeQuality; fill-rule:evenodd; clip-rule:evenodd" xmlns:xlink="http://www.w3.org/1999/xlink">
<g><path style="opacity:0.93" fill="#ef2a8a" d="M 94.5,33.5 C 198.167,33.3333 301.834,33.5 405.5,34C 425.631,42.132 437.131,56.9653 440,78.5C 440.667,128.833 440.667,179.167 440,229.5C 433.459,239.137 426.126,239.804 418,231.5C 417.667,182.167 417.333,132.833 417,83.5C 416.27,72.1898 411.103,63.6898 401.5,58C 399.285,57.8295 397.285,57.1628 395.5,56C 298.833,55.3333 202.167,55.3333 105.5,56C 92.8427,58.55 83.5094,65.55 77.5,77C 77.3376,194.626 77.5043,312.46 78,430.5C 79.509,439.689 84.509,446.356 93,450.5C 96.6917,452.38 100.525,453.88 104.5,455C 201.5,455.667 298.5,455.667 395.5,455C 408.843,451.312 416.009,442.479 417,428.5C 417.167,398.828 417.667,369.161 418.5,339.5C 422.936,334.412 428.27,333.245 434.5,336C 437.106,337.938 438.939,340.438 440,343.5C 440.667,373.833 440.667,404.167 440,434.5C 436.161,454.995 424.661,469.161 405.5,477C 301.498,477.833 197.498,477.667 93.5,476.5C 82.2681,472.137 72.4347,465.47 64,456.5C 60.2452,451.238 57.2452,445.571 55,439.5C 54.1667,316.165 54.3333,192.832 55.5,69.5C 62.8657,52.8217 75.1991,41.6551 92.5,36C 93.3805,35.2917 94.0472,34.4584 94.5,33.5 Z"/></g>
<g><path style="opacity:0.859" fill="#ef2a8a" d="M 165.5,162.5 C 219.834,162.333 274.168,162.5 328.5,163C 340.585,167.606 342.585,174.94 334.5,185C 333.167,185.333 331.833,185.667 330.5,186C 274.833,186.667 219.167,186.667 163.5,186C 157.371,184.696 154.371,180.863 154.5,174.5C 154.692,172.423 155.192,170.423 156,168.5C 158.848,165.848 162.015,163.848 165.5,162.5 Z"/></g>
<g><path style="opacity:0.901" fill="#ef2a8a" d="M 485.5,218.5 C 490.201,218.293 494.035,219.96 497,223.5C 497.667,228.167 497.667,232.833 497,237.5C 428.167,303.333 359.333,369.167 290.5,435C 283.821,439.294 277.987,438.128 273,431.5C 270.201,425.53 271.368,420.53 276.5,416.5C 341.318,354.849 405.985,293.016 470.5,231C 475.405,226.584 480.405,222.418 485.5,218.5 Z"/></g>
<g><path style="opacity:0.88" fill="#ef2a8a" d="M 164.5,263.5 C 219.501,263.333 274.501,263.5 329.5,264C 339.055,267.721 341.555,274.221 337,283.5C 335.421,285.041 333.587,286.208 331.5,287C 275.167,287.667 218.833,287.667 162.5,287C 156.893,285.224 154.226,281.391 154.5,275.5C 155.018,268.994 158.351,264.994 164.5,263.5 Z"/></g>
</svg>
