<?xml version="1.0" encoding="UTF-8"?>
<!DOCTYPE svg PUBLIC "-//W3C//DTD SVG 1.1//EN" "http://www.w3.org/Graphics/SVG/1.1/DTD/svg11.dtd">
<svg xmlns="http://www.w3.org/2000/svg" version="1.1" width="512px" height="512px" style="shape-rendering:geometricPrecision; text-rendering:geometricPrecision; image-rendering:optimizeQuality; fill-rule:evenodd; clip-rule:evenodd" xmlns:xlink="http://www.w3.org/1999/xlink">
<g><path style="opacity:0.961" fill="#fe8b0d" d="M 260.5,24.5 C 270.007,24.5685 279.34,25.7352 288.5,28C 306.79,37.615 319.29,52.115 326,71.5C 329.137,84.2122 331.471,97.2122 333,110.5C 333.667,118.167 333.667,125.833 333,133.5C 332.333,134.833 331.667,136.167 331,137.5C 329.204,155.307 324.704,172.307 317.5,188.5C 348.665,189.646 379.831,189.646 411,188.5C 447.526,185.749 472.859,201.082 487,234.5C 488.929,254.164 488.929,273.831 487,293.5C 486.333,294.167 485.667,294.833 485,295.5C 483.394,306.724 481.061,317.724 478,328.5C 477.333,329.167 476.667,329.833 476,330.5C 473.008,341.723 470.008,353.056 467,364.5C 466.333,365.167 465.667,365.833 465,366.5C 457.411,392.143 446.078,416.143 431,438.5C 409.813,464.834 382.646,480.334 349.5,485C 340.5,485.333 331.5,485.667 322.5,486C 223.81,486.981 125.144,486.648 26.5,485C 23.312,483.066 21.812,480.232 22,476.5C 21.0146,382.47 21.3479,288.47 23,194.5C 25.2583,192.57 27.7583,191.07 30.5,190C 64.5,189.333 98.5,189.333 132.5,190C 139.922,190.305 146.422,192.805 152,197.5C 152.903,196.299 154.069,195.465 155.5,195C 161.354,190.144 166.854,184.977 172,179.5C 174.304,175.203 177.304,171.536 181,168.5C 184.306,162.871 187.973,157.537 192,152.5C 196.037,143.692 200.37,135.026 205,126.5C 208.284,117.85 210.617,108.85 212,99.5C 212.419,98.3279 213.085,97.3279 214,96.5C 215.985,82.9355 216.985,69.2688 217,55.5C 221.105,41.0142 230.272,31.1808 244.5,26C 250.016,25.8267 255.349,25.3267 260.5,24.5 Z M 254.5,52.5 C 265.031,51.3472 275.031,52.8472 284.5,57C 287.427,59.3824 290.261,61.8824 293,64.5C 296.3,70.4261 299.3,76.4261 302,82.5C 307.943,104.18 307.943,125.847 302,147.5C 301.333,148.167 300.667,148.833 300,149.5C 298.006,158.173 295.006,166.507 291,174.5C 287.366,180.813 283.699,187.147 280,193.5C 276.629,197.531 273.296,201.531 270,205.5C 269.333,208.833 269.333,212.167 270,215.5C 270.5,216 271,216.5 271.5,217C 313.833,217.667 356.167,217.667 398.5,217C 401.436,215.955 404.436,215.121 407.5,214.5C 421.078,214.822 433.411,218.655 444.5,226C 448.092,228.921 450.925,232.421 453,236.5C 455.92,243.667 458.253,251 460,258.5C 460.667,264.833 460.667,271.167 460,277.5C 457.072,291.548 454.072,305.548 451,319.5C 446.041,334.773 441.041,350.107 436,365.5C 429.43,380.541 422.097,395.207 414,409.5C 394.303,438.281 367.137,454.448 332.5,458C 272.501,458.5 212.501,458.667 152.5,458.5C 152.333,383.499 152.5,308.499 153,233.5C 192.494,203.739 220.161,165.739 236,119.5C 239.739,100.431 242.406,81.0981 244,61.5C 245.02,60.1095 245.853,58.6095 246.5,57C 249.286,55.4987 251.953,53.9987 254.5,52.5 Z M 49.5,217.5 C 74.8333,217.5 100.167,217.5 125.5,217.5C 125.5,297.833 125.5,378.167 125.5,458.5C 100.167,458.5 74.8333,458.5 49.5,458.5C 49.5,378.167 49.5,297.833 49.5,217.5 Z"/></g>
</svg>
